<mxfile host="65bd71144e">
    <diagram id="EJc_ZQxOV-EYeJzVw6CA" name="Page-1">
        <mxGraphModel dx="1705" dy="1003" grid="1" gridSize="10" guides="1" tooltips="1" connect="1" arrows="1" fold="1" page="1" pageScale="1" pageWidth="1654" pageHeight="2336" background="#ffffff" math="0" shadow="1" adaptiveColors="auto">
            <root>
                <mxCell id="0"/>
                <mxCell id="1" parent="0"/>
                <mxCell id="2" value="&lt;font style=&quot;font-size: 24px;&quot;&gt;&lt;b&gt;RECIPE TRACKING&lt;/b&gt;&lt;/font&gt;" style="text;html=1;align=center;verticalAlign=middle;whiteSpace=wrap;rounded=0;fillColor=#dae8fc;strokeColor=#6c8ebf;" parent="1" vertex="1">
                    <mxGeometry x="225" y="40" width="680" height="70" as="geometry"/>
                </mxCell>
                <mxCell id="99" value="" style="edgeStyle=orthogonalEdgeStyle;rounded=0;orthogonalLoop=1;jettySize=auto;html=1;fillColor=none;" edge="1" parent="1" source="100">
                    <mxGeometry relative="1" as="geometry">
                        <mxPoint x="398" y="815" as="targetPoint"/>
                    </mxGeometry>
                </mxCell>
                <mxCell id="100" value="" style="rhombus;whiteSpace=wrap;html=1;fillColor=none;rounded=0;" vertex="1" parent="1">
                    <mxGeometry x="363" y="705" width="70" height="60" as="geometry"/>
                </mxCell>
                <mxCell id="101" style="edgeStyle=orthogonalEdgeStyle;rounded=0;orthogonalLoop=1;jettySize=auto;html=1;exitX=0.5;exitY=1;exitDx=0;exitDy=0;" edge="1" parent="1" source="102" target="125">
                    <mxGeometry relative="1" as="geometry">
                        <Array as="points">
                            <mxPoint x="293" y="540"/>
                            <mxPoint x="293" y="540"/>
                        </Array>
                    </mxGeometry>
                </mxCell>
                <mxCell id="102" value="&lt;span style=&quot;font-size: 14px; text-wrap-mode: nowrap;&quot;&gt;&amp;lt;&amp;lt;DATA STORE&amp;gt;&amp;gt;&lt;/span&gt;&lt;br&gt;&lt;div style=&quot;text-wrap-mode: nowrap;&quot;&gt;&lt;font size=&quot;3&quot;&gt;RECIPE&lt;/font&gt;&lt;/div&gt;" style="rounded=0;whiteSpace=wrap;html=1;fillColor=none;" vertex="1" parent="1">
                    <mxGeometry x="213" y="460" width="170" height="60" as="geometry"/>
                </mxCell>
                <mxCell id="103" style="edgeStyle=orthogonalEdgeStyle;rounded=0;orthogonalLoop=1;jettySize=auto;html=1;exitX=0.5;exitY=1;exitDx=0;exitDy=0;" edge="1" parent="1" source="104" target="128">
                    <mxGeometry relative="1" as="geometry">
                        <Array as="points">
                            <mxPoint x="398" y="995"/>
                            <mxPoint x="398" y="995"/>
                        </Array>
                    </mxGeometry>
                </mxCell>
                <mxCell id="104" value="&lt;span style=&quot;font-size: 14px; text-wrap-mode: nowrap;&quot;&gt;&amp;lt;&amp;lt;DATA STORE&amp;gt;&amp;gt;&lt;/span&gt;&lt;br&gt;&lt;div style=&quot;text-wrap-mode: nowrap;&quot;&gt;&lt;font size=&quot;3&quot;&gt;RECIPE HISTORY&lt;/font&gt;&lt;/div&gt;" style="rounded=0;whiteSpace=wrap;html=1;fillColor=none;" vertex="1" parent="1">
                    <mxGeometry x="313" y="915" width="170" height="60" as="geometry"/>
                </mxCell>
                <mxCell id="105" value="" style="edgeStyle=orthogonalEdgeStyle;rounded=0;orthogonalLoop=1;jettySize=auto;html=1;fillColor=none;exitX=0.5;exitY=0.95;exitDx=0;exitDy=0;exitPerimeter=0;" edge="1" parent="1" source="106" target="118">
                    <mxGeometry relative="1" as="geometry"/>
                </mxCell>
                <mxCell id="106" value="&lt;span style=&quot;font-size: 14px; text-wrap-mode: nowrap;&quot;&gt;&amp;lt;&amp;lt;DATA STORE&amp;gt;&amp;gt;&lt;/span&gt;&lt;br style=&quot;text-wrap-mode: nowrap;&quot;&gt;&lt;div style=&quot;text-wrap-mode: nowrap;&quot;&gt;&lt;font size=&quot;3&quot;&gt;NEW RECIPE HISTORY&lt;/font&gt;&lt;/div&gt;" style="rounded=0;whiteSpace=wrap;html=1;fillColor=none;" vertex="1" parent="1">
                    <mxGeometry x="713" y="440" width="230" height="60" as="geometry"/>
                </mxCell>
                <mxCell id="107" value="" style="edgeStyle=orthogonalEdgeStyle;rounded=0;orthogonalLoop=1;jettySize=auto;html=1;" edge="1" parent="1" source="108" target="133">
                    <mxGeometry relative="1" as="geometry">
                        <Array as="points">
                            <mxPoint x="543" y="1485"/>
                            <mxPoint x="543" y="1485"/>
                        </Array>
                    </mxGeometry>
                </mxCell>
                <mxCell id="108" value="&lt;div&gt;&lt;font style=&quot;text-wrap-mode: nowrap; font-size: 14px;&quot;&gt;&amp;lt;&amp;lt;DATA STORE&amp;gt;&amp;gt;&lt;/font&gt;&lt;/div&gt;&lt;font style=&quot;text-wrap-mode: nowrap; font-size: 14px;&quot;&gt;ON&amp;nbsp;&lt;/font&gt;&lt;span style=&quot;font-size: 14px; text-wrap-mode: nowrap; background-color: transparent; color: light-dark(rgb(0, 0, 0), rgb(255, 255, 255));&quot;&gt;EXECUTION&lt;/span&gt;&lt;div style=&quot;text-wrap-mode: nowrap;&quot;&gt;&lt;span style=&quot;font-size: 14px; background-color: transparent; color: light-dark(rgb(0, 0, 0), rgb(255, 255, 255));&quot;&gt;ACTIONS&lt;/span&gt;&lt;/div&gt;" style="rounded=0;whiteSpace=wrap;html=1;fillColor=none;" vertex="1" parent="1">
                    <mxGeometry x="428" y="1345" width="240" height="110" as="geometry"/>
                </mxCell>
                <mxCell id="109" value="" style="edgeStyle=orthogonalEdgeStyle;rounded=0;orthogonalLoop=1;jettySize=auto;html=1;fillColor=none;" edge="1" parent="1" source="110" target="102">
                    <mxGeometry relative="1" as="geometry"/>
                </mxCell>
                <mxCell id="110" value="&lt;font style=&quot;text-wrap-mode: nowrap; font-size: 14px;&quot;&gt;UPDATE&lt;/font&gt;&lt;div style=&quot;text-wrap-mode: nowrap;&quot;&gt;&lt;font size=&quot;3&quot;&gt;RECIPE&lt;/font&gt;&lt;/div&gt;" style="rounded=0;whiteSpace=wrap;html=1;fillColor=none;" vertex="1" parent="1">
                    <mxGeometry x="203" y="350" width="190" height="60" as="geometry"/>
                </mxCell>
                <mxCell id="111" value="" style="edgeStyle=orthogonalEdgeStyle;rounded=0;orthogonalLoop=1;jettySize=auto;html=1;fillColor=none;" edge="1" parent="1" source="112" target="104">
                    <mxGeometry relative="1" as="geometry"/>
                </mxCell>
                <mxCell id="112" value="&lt;font style=&quot;text-wrap-mode: nowrap; font-size: 14px;&quot;&gt;UPDATE&lt;/font&gt;&lt;div style=&quot;text-wrap-mode: nowrap;&quot;&gt;&lt;font size=&quot;3&quot;&gt;RECIPE HISTORY&lt;/font&gt;&lt;/div&gt;" style="rounded=0;whiteSpace=wrap;html=1;fillColor=none;" vertex="1" parent="1">
                    <mxGeometry x="303" y="815" width="190" height="60" as="geometry"/>
                </mxCell>
                <mxCell id="113" value="" style="edgeStyle=orthogonalEdgeStyle;rounded=0;orthogonalLoop=1;jettySize=auto;html=1;exitX=0.478;exitY=1;exitDx=0;exitDy=0;exitPerimeter=0;fillColor=none;" edge="1" parent="1" source="114" target="106">
                    <mxGeometry relative="1" as="geometry"/>
                </mxCell>
                <mxCell id="114" value="&lt;span style=&quot;text-wrap-mode: nowrap; font-size: 14px;&quot;&gt;COMMAND&lt;/span&gt;&lt;br style=&quot;text-wrap-mode: nowrap;&quot;&gt;&lt;div style=&quot;text-wrap-mode: nowrap;&quot;&gt;&lt;font size=&quot;3&quot;&gt;RECIPE HISTORY&lt;/font&gt;&lt;/div&gt;" style="rounded=0;whiteSpace=wrap;html=1;fillColor=none;" vertex="1" parent="1">
                    <mxGeometry x="723" y="335" width="220" height="60" as="geometry"/>
                </mxCell>
                <mxCell id="115" value="" style="edgeStyle=orthogonalEdgeStyle;rounded=0;orthogonalLoop=1;jettySize=auto;html=1;fillColor=none;" edge="1" parent="1" source="116">
                    <mxGeometry relative="1" as="geometry">
                        <mxPoint x="548" y="1345" as="targetPoint"/>
                    </mxGeometry>
                </mxCell>
                <mxCell id="116" value="&lt;font style=&quot;text-wrap-mode: nowrap; font-size: 14px;&quot;&gt;UPDATE ON&lt;/font&gt;&lt;div style=&quot;text-wrap-mode: nowrap;&quot;&gt;&lt;font style=&quot;font-size: 14px;&quot;&gt;EXECUTION ACTIONS&lt;/font&gt;&lt;/div&gt;" style="rounded=0;whiteSpace=wrap;html=1;fillColor=none;" vertex="1" parent="1">
                    <mxGeometry x="433" y="1235" width="230" height="60" as="geometry"/>
                </mxCell>
                <mxCell id="117" value="B" style="ellipse;whiteSpace=wrap;html=1;aspect=fixed;fillColor=none;rounded=0;" vertex="1" parent="1">
                    <mxGeometry x="187" y="695" width="60" height="60" as="geometry"/>
                </mxCell>
                <mxCell id="118" value="E" style="ellipse;whiteSpace=wrap;html=1;aspect=fixed;fillColor=none;rounded=0;" vertex="1" parent="1">
                    <mxGeometry x="798" y="560" width="60" height="60" as="geometry"/>
                </mxCell>
                <mxCell id="119" value="C" style="ellipse;whiteSpace=wrap;html=1;aspect=fixed;fillColor=none;rounded=0;" vertex="1" parent="1">
                    <mxGeometry x="313" y="1135" width="60" height="60" as="geometry"/>
                </mxCell>
                <mxCell id="120" style="edgeStyle=orthogonalEdgeStyle;rounded=0;orthogonalLoop=1;jettySize=auto;html=1;exitX=0.5;exitY=1;exitDx=0;exitDy=0;" edge="1" parent="1" source="121" target="135">
                    <mxGeometry relative="1" as="geometry">
                        <Array as="points">
                            <mxPoint x="893" y="240"/>
                            <mxPoint x="893" y="240"/>
                        </Array>
                    </mxGeometry>
                </mxCell>
                <mxCell id="121" value="C" style="ellipse;whiteSpace=wrap;html=1;aspect=fixed;fillColor=none;rounded=0;" vertex="1" parent="1">
                    <mxGeometry x="883" y="160" width="60" height="60" as="geometry"/>
                </mxCell>
                <mxCell id="122" value="D" style="ellipse;whiteSpace=wrap;html=1;aspect=fixed;fillColor=none;rounded=0;" vertex="1" parent="1">
                    <mxGeometry x="433" y="1645" width="60" height="60" as="geometry"/>
                </mxCell>
                <mxCell id="123" value="" style="edgeStyle=orthogonalEdgeStyle;rounded=0;orthogonalLoop=1;jettySize=auto;html=1;entryX=0;entryY=0;entryDx=0;entryDy=0;" edge="1" parent="1" source="125" target="100">
                    <mxGeometry relative="1" as="geometry">
                        <Array as="points">
                            <mxPoint x="343" y="690"/>
                            <mxPoint x="381" y="690"/>
                        </Array>
                    </mxGeometry>
                </mxCell>
                <mxCell id="124" value="" style="edgeStyle=orthogonalEdgeStyle;rounded=0;orthogonalLoop=1;jettySize=auto;html=1;" edge="1" parent="1" source="125" target="117">
                    <mxGeometry relative="1" as="geometry">
                        <Array as="points">
                            <mxPoint x="243" y="690"/>
                            <mxPoint x="217" y="690"/>
                        </Array>
                    </mxGeometry>
                </mxCell>
                <mxCell id="125" value="" style="line;strokeWidth=4;html=1;perimeter=backbonePerimeter;points=[];outlineConnect=0;fillColor=none;rounded=0;" vertex="1" parent="1">
                    <mxGeometry x="213" y="480" width="170" height="190" as="geometry"/>
                </mxCell>
                <mxCell id="126" value="" style="edgeStyle=orthogonalEdgeStyle;rounded=0;orthogonalLoop=1;jettySize=auto;html=1;" edge="1" parent="1" source="128" target="119">
                    <mxGeometry relative="1" as="geometry">
                        <Array as="points">
                            <mxPoint x="363" y="1160"/>
                            <mxPoint x="373" y="1160"/>
                        </Array>
                    </mxGeometry>
                </mxCell>
                <mxCell id="127" value="" style="edgeStyle=orthogonalEdgeStyle;rounded=0;orthogonalLoop=1;jettySize=auto;html=1;" edge="1" parent="1" source="128" target="130">
                    <mxGeometry relative="1" as="geometry">
                        <Array as="points">
                            <mxPoint x="463" y="1085"/>
                            <mxPoint x="463" y="1085"/>
                        </Array>
                    </mxGeometry>
                </mxCell>
                <mxCell id="128" value="" style="line;strokeWidth=4;html=1;perimeter=backbonePerimeter;points=[];outlineConnect=0;fillColor=none;rounded=0;" vertex="1" parent="1">
                    <mxGeometry x="313" y="945" width="170" height="190" as="geometry"/>
                </mxCell>
                <mxCell id="129" value="" style="edgeStyle=orthogonalEdgeStyle;rounded=0;orthogonalLoop=1;jettySize=auto;html=1;" edge="1" parent="1" source="130" target="116">
                    <mxGeometry relative="1" as="geometry">
                        <Array as="points">
                            <mxPoint x="548" y="1195"/>
                            <mxPoint x="548" y="1195"/>
                        </Array>
                    </mxGeometry>
                </mxCell>
                <mxCell id="130" value="" style="line;strokeWidth=4;html=1;perimeter=backbonePerimeter;points=[];outlineConnect=0;fillColor=none;rounded=0;" vertex="1" parent="1">
                    <mxGeometry x="463" y="1055" width="170" height="190" as="geometry"/>
                </mxCell>
                <mxCell id="131" value="" style="edgeStyle=orthogonalEdgeStyle;rounded=0;orthogonalLoop=1;jettySize=auto;html=1;" edge="1" parent="1" source="133">
                    <mxGeometry relative="1" as="geometry">
                        <mxPoint x="683" y="1655" as="targetPoint"/>
                        <Array as="points">
                            <mxPoint x="583" y="1635"/>
                            <mxPoint x="683" y="1635"/>
                        </Array>
                    </mxGeometry>
                </mxCell>
                <mxCell id="132" value="" style="edgeStyle=orthogonalEdgeStyle;rounded=0;orthogonalLoop=1;jettySize=auto;html=1;entryX=1;entryY=0;entryDx=0;entryDy=0;" edge="1" parent="1" source="133" target="122">
                    <mxGeometry relative="1" as="geometry">
                        <Array as="points">
                            <mxPoint x="513" y="1625"/>
                            <mxPoint x="513" y="1625"/>
                        </Array>
                    </mxGeometry>
                </mxCell>
                <mxCell id="133" value="" style="line;strokeWidth=4;html=1;perimeter=backbonePerimeter;points=[];outlineConnect=0;fillColor=none;rounded=0;" vertex="1" parent="1">
                    <mxGeometry x="458" y="1435" width="170" height="190" as="geometry"/>
                </mxCell>
                <mxCell id="134" value="" style="edgeStyle=orthogonalEdgeStyle;rounded=0;orthogonalLoop=1;jettySize=auto;html=1;" edge="1" parent="1" source="135" target="114">
                    <mxGeometry relative="1" as="geometry">
                        <Array as="points">
                            <mxPoint x="833" y="300"/>
                            <mxPoint x="833" y="300"/>
                        </Array>
                    </mxGeometry>
                </mxCell>
                <mxCell id="135" value="" style="line;strokeWidth=4;html=1;perimeter=backbonePerimeter;points=[];outlineConnect=0;fillColor=none;rounded=0;" vertex="1" parent="1">
                    <mxGeometry x="723" y="180" width="220" height="190" as="geometry"/>
                </mxCell>
                <mxCell id="136" value="" style="shape=sumEllipse;perimeter=ellipsePerimeter;whiteSpace=wrap;html=1;backgroundOutline=1;fillColor=none;rounded=0;" vertex="1" parent="1">
                    <mxGeometry x="843" y="1660" width="50" height="50" as="geometry"/>
                </mxCell>
                <mxCell id="137" value="" style="edgeStyle=orthogonalEdgeStyle;rounded=0;orthogonalLoop=1;jettySize=auto;html=1;" edge="1" parent="1" target="136">
                    <mxGeometry relative="1" as="geometry">
                        <mxPoint x="803" y="1685" as="sourcePoint"/>
                    </mxGeometry>
                </mxCell>
                <mxCell id="138" style="edgeStyle=orthogonalEdgeStyle;rounded=0;orthogonalLoop=1;jettySize=auto;html=1;exitX=0;exitY=0;exitDx=130;exitDy=60.00000000000001;exitPerimeter=0;" edge="1" parent="1" source="139" target="130">
                    <mxGeometry relative="1" as="geometry">
                        <Array as="points">
                            <mxPoint x="693" y="1045"/>
                            <mxPoint x="623" y="1045"/>
                        </Array>
                    </mxGeometry>
                </mxCell>
                <mxCell id="139" value="&lt;font style=&quot;font-size: 14px;&quot;&gt;UPDATE ON&lt;/font&gt;&lt;div&gt;&lt;font style=&quot;font-size: 14px;&quot;&gt;EXECUTION ACTIONS&lt;/font&gt;&lt;/div&gt;" style="html=1;shadow=0;dashed=0;align=center;verticalAlign=middle;shape=mxgraph.arrows2.arrow;dy=0;dx=0;notch=30.71;fillColor=none;rounded=0;" vertex="1" parent="1">
                    <mxGeometry x="563" y="975" width="260" height="60" as="geometry"/>
                </mxCell>
                <mxCell id="140" style="edgeStyle=orthogonalEdgeStyle;rounded=0;orthogonalLoop=1;jettySize=auto;html=1;entryX=1;entryY=0;entryDx=0;entryDy=0;" edge="1" parent="1" source="141" target="100">
                    <mxGeometry relative="1" as="geometry">
                        <Array as="points">
                            <mxPoint x="568" y="700"/>
                            <mxPoint x="416" y="700"/>
                        </Array>
                    </mxGeometry>
                </mxCell>
                <mxCell id="141" value="&lt;font style=&quot;font-size: 14px;&quot;&gt;UPDATE&lt;/font&gt;&lt;div&gt;&lt;font size=&quot;3&quot;&gt;RECIPE HISTORY&lt;/font&gt;&lt;/div&gt;" style="html=1;shadow=0;dashed=0;align=center;verticalAlign=middle;shape=mxgraph.arrows2.arrow;dy=0;dx=0;notch=30.71;fillColor=none;rounded=0;" vertex="1" parent="1">
                    <mxGeometry x="453" y="620" width="230" height="60" as="geometry"/>
                </mxCell>
                <mxCell id="142" style="edgeStyle=orthogonalEdgeStyle;rounded=0;orthogonalLoop=1;jettySize=auto;html=1;entryX=0.5;entryY=0;entryDx=0;entryDy=0;exitX=0.472;exitY=0.917;exitDx=0;exitDy=0;exitPerimeter=0;" edge="1" parent="1" source="143" target="110">
                    <mxGeometry relative="1" as="geometry">
                        <mxPoint x="293" y="305" as="sourcePoint"/>
                    </mxGeometry>
                </mxCell>
                <mxCell id="143" value="&lt;font style=&quot;font-size: 14px;&quot;&gt;UPDATE&lt;/font&gt;&lt;div&gt;&lt;font size=&quot;3&quot;&gt;RECIPE&lt;/font&gt;&lt;/div&gt;" style="html=1;shadow=0;dashed=0;align=center;verticalAlign=middle;shape=mxgraph.arrows2.arrow;dy=0;dx=0;notch=30.71;fillColor=none;rounded=0;" vertex="1" parent="1">
                    <mxGeometry x="213" y="241" width="180" height="60" as="geometry"/>
                </mxCell>
                <mxCell id="144" style="edgeStyle=orthogonalEdgeStyle;rounded=0;orthogonalLoop=1;jettySize=auto;html=1;exitX=0;exitY=0;exitDx=130;exitDy=60.00000000000001;exitPerimeter=0;" edge="1" parent="1" source="145" target="135">
                    <mxGeometry relative="1" as="geometry">
                        <Array as="points">
                            <mxPoint x="663" y="240"/>
                        </Array>
                    </mxGeometry>
                </mxCell>
                <mxCell id="145" value="&lt;span style=&quot;font-size: 14px;&quot;&gt;COMMAND&lt;/span&gt;&lt;br&gt;&lt;div&gt;&lt;font size=&quot;3&quot;&gt;RECIPE HISTORY&lt;/font&gt;&lt;/div&gt;" style="html=1;shadow=0;dashed=0;align=center;verticalAlign=middle;shape=mxgraph.arrows2.arrow;dy=0;dx=0;notch=30.71;fillColor=none;rounded=0;" vertex="1" parent="1">
                    <mxGeometry x="533" y="160" width="260" height="60" as="geometry"/>
                </mxCell>
                <mxCell id="146" value="&lt;font style=&quot;font-size: 14px;&quot;&gt;UPDATE&lt;/font&gt;&lt;div&gt;&lt;font size=&quot;3&quot;&gt;RECIPE HISTORY&lt;/font&gt;&lt;/div&gt;" style="html=1;shadow=0;dashed=0;align=center;verticalAlign=middle;shape=mxgraph.arrows2.arrow;dy=0;dx=44.43;notch=0;fillColor=none;rounded=0;" vertex="1" parent="1">
                    <mxGeometry x="563" y="1655" width="240" height="60" as="geometry"/>
                </mxCell>
            </root>
        </mxGraphModel>
    </diagram>
    <diagram id="WqeF74VfAlt6YAIXPpJA" name="Page-2">
        <mxGraphModel dx="1176" dy="692" grid="1" gridSize="10" guides="1" tooltips="1" connect="1" arrows="1" fold="1" page="1" pageScale="1" pageWidth="1654" pageHeight="2336" math="0" shadow="0">
            <root>
                <mxCell id="0"/>
                <mxCell id="1" parent="0"/>
                <mxCell id="5LUOxO8Yqhr75Qo2ohzF-1" value="&lt;font style=&quot;font-size: 24px;&quot;&gt;&lt;b&gt;RECIPE TRACKING&lt;/b&gt;&lt;/font&gt;" style="text;html=1;align=center;verticalAlign=middle;whiteSpace=wrap;rounded=0;fillColor=#dae8fc;strokeColor=#6c8ebf;" vertex="1" parent="1">
                    <mxGeometry x="487" y="50" width="680" height="70" as="geometry"/>
                </mxCell>
                <mxCell id="UsvZzRasxax40uqtQAqn-1" value="" style="ellipse;fillColor=strokeColor;html=1;" vertex="1" parent="1">
                    <mxGeometry x="612" y="200" width="30" height="30" as="geometry"/>
                </mxCell>
                <mxCell id="UsvZzRasxax40uqtQAqn-2" value="" style="html=1;verticalAlign=bottom;labelBackgroundColor=none;endArrow=block;endFill=1;endSize=6;align=left;exitX=0.5;exitY=1;exitDx=0;exitDy=0;entryX=0.5;entryY=0;entryDx=0;entryDy=0;" edge="1" parent="1" source="UsvZzRasxax40uqtQAqn-1">
                    <mxGeometry x="-1" relative="1" as="geometry">
                        <mxPoint x="632" y="-130" as="sourcePoint"/>
                        <mxPoint x="627" y="270" as="targetPoint"/>
                    </mxGeometry>
                </mxCell>
                <mxCell id="4X0zjWEexEtLYLQdlOIt-1" value="&lt;span style=&quot;text-wrap-mode: nowrap; font-size: 14px;&quot;&gt;Command&lt;/span&gt;&lt;br style=&quot;text-wrap-mode: nowrap;&quot;&gt;&lt;div style=&quot;text-wrap-mode: nowrap;&quot;&gt;&lt;font size=&quot;3&quot;&gt;Get Recipe by user&lt;/font&gt;&lt;/div&gt;" style="rounded=1;whiteSpace=wrap;html=1;fillColor=#f8cecc;strokeColor=#b85450;" vertex="1" parent="1">
                    <mxGeometry x="517" y="270" width="220" height="60" as="geometry"/>
                </mxCell>
                <mxCell id="L7ZG_LAuSVnrmDlZ3mBA-1" value="&amp;lt;&amp;lt;data store&amp;gt;&amp;gt;&lt;br&gt;&lt;br&gt;Recipe:text" style="html=1;align=center;verticalAlign=middle;dashed=0;whiteSpace=wrap;fillColor=#fff2cc;strokeColor=#d6b656;" vertex="1" parent="1">
                    <mxGeometry x="560" y="380" width="135" height="60" as="geometry"/>
                </mxCell>
                <mxCell id="L7ZG_LAuSVnrmDlZ3mBA-2" value="" style="html=1;verticalAlign=bottom;labelBackgroundColor=none;endArrow=block;endFill=1;endSize=6;align=left;exitX=0.5;exitY=1;exitDx=0;exitDy=0;entryX=0.5;entryY=0;entryDx=0;entryDy=0;" edge="1" parent="1" source="4X0zjWEexEtLYLQdlOIt-1" target="L7ZG_LAuSVnrmDlZ3mBA-1">
                    <mxGeometry x="-1" relative="1" as="geometry">
                        <mxPoint x="590" y="340" as="sourcePoint"/>
                        <mxPoint x="590" y="370" as="targetPoint"/>
                    </mxGeometry>
                </mxCell>
                <mxCell id="L7ZG_LAuSVnrmDlZ3mBA-3" value="" style="html=1;points=[];perimeter=orthogonalPerimeter;rotation=90;fillColor=#000000;" vertex="1" parent="1">
                    <mxGeometry x="625" y="440" width="5" height="170" as="geometry"/>
                </mxCell>
                <mxCell id="Th52JmxbzkE61dXZPVAA-3" value="" style="html=1;verticalAlign=bottom;labelBackgroundColor=none;endArrow=block;endFill=1;endSize=6;align=left;exitX=0.5;exitY=1;exitDx=0;exitDy=0;" edge="1" parent="1" source="L7ZG_LAuSVnrmDlZ3mBA-1">
                    <mxGeometry x="-1" relative="1" as="geometry">
                        <mxPoint x="642" y="450" as="sourcePoint"/>
                        <mxPoint x="628" y="520" as="targetPoint"/>
                    </mxGeometry>
                </mxCell>
                <mxCell id="4wIWuwl03y7yujNK29dD-1" value="" style="edgeStyle=orthogonalEdgeStyle;rounded=0;orthogonalLoop=1;jettySize=auto;html=1;exitX=1.302;exitY=0.855;exitDx=0;exitDy=0;exitPerimeter=0;entryX=1.003;entryY=0.442;entryDx=0;entryDy=0;entryPerimeter=0;" edge="1" parent="1" source="L7ZG_LAuSVnrmDlZ3mBA-3" target="I4lPiZadAsvZpwIe8SXw-1">
                    <mxGeometry relative="1" as="geometry">
                        <Array as="points">
                            <mxPoint x="567" y="657"/>
                            <mxPoint x="510" y="657"/>
                        </Array>
                        <mxPoint x="566" y="550" as="sourcePoint"/>
                        <mxPoint x="520" y="664" as="targetPoint"/>
                    </mxGeometry>
                </mxCell>
                <mxCell id="I4lPiZadAsvZpwIe8SXw-1" value="B" style="ellipse;whiteSpace=wrap;html=1;aspect=fixed;fillColor=#ffe6cc;rounded=0;strokeColor=#d79b00;" vertex="1" parent="1">
                    <mxGeometry x="450" y="630" width="60" height="60" as="geometry"/>
                </mxCell>
                <mxCell id="rwbl7KxP4CWPdGbK-Yaz-1" value="" style="rhombus;whiteSpace=wrap;html=1;fillColor=#f8cecc;rounded=0;strokeColor=#b85450;" vertex="1" parent="1">
                    <mxGeometry x="760" y="630" width="70" height="60" as="geometry"/>
                </mxCell>
                <mxCell id="sYYpWAX7rY2kHyuxgI6e-1" value="" style="edgeStyle=orthogonalEdgeStyle;rounded=0;orthogonalLoop=1;jettySize=auto;html=1;entryX=0;entryY=0;entryDx=0;entryDy=0;" edge="1" parent="1" target="rwbl7KxP4CWPdGbK-Yaz-1">
                    <mxGeometry relative="1" as="geometry">
                        <Array as="points">
                            <mxPoint x="672" y="630"/>
                            <mxPoint x="778" y="630"/>
                        </Array>
                        <mxPoint x="672" y="530" as="sourcePoint"/>
                        <mxPoint x="710" y="674" as="targetPoint"/>
                    </mxGeometry>
                </mxCell>
                <mxCell id="gB9eCKBJBm7TmjvlQ3zs-1" value="&lt;font style=&quot;font-size: 14px;&quot;&gt;Update&lt;/font&gt;&lt;div&gt;&lt;font size=&quot;3&quot;&gt;Recipe history&lt;/font&gt;&lt;/div&gt;" style="html=1;shadow=0;dashed=0;align=center;verticalAlign=middle;shape=mxgraph.arrows2.arrow;dy=0;dx=0;notch=30.71;fillColor=#d5e8d4;rounded=0;strokeColor=#82b366;" vertex="1" parent="1">
                    <mxGeometry x="830" y="550" width="230" height="60" as="geometry"/>
                </mxCell>
                <mxCell id="ecXhwHffzLHFob8Il6vv-1" style="edgeStyle=orthogonalEdgeStyle;rounded=0;orthogonalLoop=1;jettySize=auto;html=1;entryX=1;entryY=0;entryDx=0;entryDy=0;exitX=0;exitY=0;exitDx=115;exitDy=60;exitPerimeter=0;" edge="1" parent="1" source="gB9eCKBJBm7TmjvlQ3zs-1" target="rwbl7KxP4CWPdGbK-Yaz-1">
                    <mxGeometry relative="1" as="geometry">
                        <Array as="points">
                            <mxPoint x="945" y="630"/>
                            <mxPoint x="813" y="630"/>
                            <mxPoint x="813" y="645"/>
                        </Array>
                        <mxPoint x="932" y="650" as="sourcePoint"/>
                        <mxPoint x="780" y="690" as="targetPoint"/>
                    </mxGeometry>
                </mxCell>
                <mxCell id="gfwHRwG1T6jOgHyEGnTI-1" value="&lt;font style=&quot;text-wrap-mode: nowrap; font-size: 14px;&quot;&gt;Update&lt;/font&gt;&lt;div style=&quot;text-wrap-mode: nowrap;&quot;&gt;&lt;span style=&quot;font-size: 14px;&quot;&gt;Step &amp;amp; Execution Actions&lt;/span&gt;&lt;/div&gt;" style="rounded=0;whiteSpace=wrap;html=1;fillColor=#fff2cc;strokeColor=#d6b656;" vertex="1" parent="1">
                    <mxGeometry x="840" y="1148" width="230" height="60" as="geometry"/>
                </mxCell>
                <mxCell id="gfwHRwG1T6jOgHyEGnTI-2" value="C" style="ellipse;whiteSpace=wrap;html=1;aspect=fixed;fillColor=#ffe6cc;rounded=0;strokeColor=#d79b00;" vertex="1" parent="1">
                    <mxGeometry x="480" y="1048" width="60" height="60" as="geometry"/>
                </mxCell>
                <mxCell id="gfwHRwG1T6jOgHyEGnTI-3" value="" style="edgeStyle=orthogonalEdgeStyle;rounded=0;orthogonalLoop=1;jettySize=auto;html=1;" edge="1" parent="1" source="gfwHRwG1T6jOgHyEGnTI-5" target="gfwHRwG1T6jOgHyEGnTI-2">
                    <mxGeometry relative="1" as="geometry">
                        <Array as="points">
                            <mxPoint x="730" y="1078"/>
                        </Array>
                    </mxGeometry>
                </mxCell>
                <mxCell id="gfwHRwG1T6jOgHyEGnTI-4" value="" style="edgeStyle=orthogonalEdgeStyle;rounded=0;orthogonalLoop=1;jettySize=auto;html=1;" edge="1" parent="1" source="gfwHRwG1T6jOgHyEGnTI-5" target="gfwHRwG1T6jOgHyEGnTI-7">
                    <mxGeometry relative="1" as="geometry">
                        <Array as="points">
                            <mxPoint x="870" y="998"/>
                            <mxPoint x="870" y="998"/>
                        </Array>
                    </mxGeometry>
                </mxCell>
                <mxCell id="gfwHRwG1T6jOgHyEGnTI-5" value="" style="line;strokeWidth=4;html=1;perimeter=backbonePerimeter;points=[];outlineConnect=0;fillColor=none;rounded=0;" vertex="1" parent="1">
                    <mxGeometry x="710" y="823" width="170" height="190" as="geometry"/>
                </mxCell>
                <mxCell id="gfwHRwG1T6jOgHyEGnTI-6" value="" style="edgeStyle=orthogonalEdgeStyle;rounded=0;orthogonalLoop=1;jettySize=auto;html=1;" edge="1" parent="1" source="gfwHRwG1T6jOgHyEGnTI-7" target="gfwHRwG1T6jOgHyEGnTI-1">
                    <mxGeometry relative="1" as="geometry">
                        <Array as="points">
                            <mxPoint x="955" y="1108"/>
                            <mxPoint x="955" y="1108"/>
                        </Array>
                    </mxGeometry>
                </mxCell>
                <mxCell id="gfwHRwG1T6jOgHyEGnTI-7" value="" style="line;strokeWidth=4;html=1;perimeter=backbonePerimeter;points=[];outlineConnect=0;fillColor=none;rounded=0;" vertex="1" parent="1">
                    <mxGeometry x="870" y="968" width="170" height="190" as="geometry"/>
                </mxCell>
                <mxCell id="gfwHRwG1T6jOgHyEGnTI-8" style="edgeStyle=orthogonalEdgeStyle;rounded=0;orthogonalLoop=1;jettySize=auto;html=1;exitX=0;exitY=0;exitDx=130;exitDy=60.00000000000001;exitPerimeter=0;" edge="1" parent="1" source="gfwHRwG1T6jOgHyEGnTI-9" target="gfwHRwG1T6jOgHyEGnTI-7">
                    <mxGeometry relative="1" as="geometry">
                        <Array as="points">
                            <mxPoint x="1100" y="958"/>
                            <mxPoint x="1030" y="958"/>
                        </Array>
                    </mxGeometry>
                </mxCell>
                <mxCell id="gfwHRwG1T6jOgHyEGnTI-9" value="&lt;font style=&quot;font-size: 14px;&quot;&gt;Update&lt;/font&gt;&lt;div&gt;&lt;span style=&quot;font-size: 14px;&quot;&gt;Step &amp;amp; Execution Actions&lt;/span&gt;&lt;/div&gt;" style="html=1;shadow=0;dashed=0;align=center;verticalAlign=middle;shape=mxgraph.arrows2.arrow;dy=0;dx=0;notch=30.71;fillColor=#d5e8d4;rounded=0;strokeColor=#82b366;" vertex="1" parent="1">
                    <mxGeometry x="970" y="888" width="260" height="60" as="geometry"/>
                </mxCell>
                <mxCell id="J4qF5Zas8Yte98CYH6ZI-1" value="&lt;font style=&quot;text-wrap-mode: nowrap; font-size: 14px;&quot;&gt;Update&lt;/font&gt;&lt;div style=&quot;text-wrap-mode: nowrap;&quot;&gt;&lt;font size=&quot;3&quot;&gt;Recipe history&lt;/font&gt;&lt;/div&gt;" style="rounded=0;whiteSpace=wrap;html=1;fillColor=#fff2cc;strokeColor=#d6b656;" vertex="1" parent="1">
                    <mxGeometry x="700" y="770" width="190" height="60" as="geometry"/>
                </mxCell>
                <mxCell id="J4qF5Zas8Yte98CYH6ZI-2" value="" style="edgeStyle=orthogonalEdgeStyle;rounded=0;orthogonalLoop=1;jettySize=auto;html=1;exitX=0.5;exitY=1;exitDx=0;exitDy=0;entryX=0.5;entryY=0;entryDx=0;entryDy=0;" edge="1" parent="1" source="rwbl7KxP4CWPdGbK-Yaz-1" target="J4qF5Zas8Yte98CYH6ZI-1">
                    <mxGeometry relative="1" as="geometry">
                        <Array as="points">
                            <mxPoint x="795" y="740"/>
                            <mxPoint x="795" y="740"/>
                        </Array>
                        <mxPoint x="940" y="680" as="sourcePoint"/>
                        <mxPoint x="940" y="787" as="targetPoint"/>
                    </mxGeometry>
                </mxCell>
                <mxCell id="ARYJxS30__drbKi8CYRL-1" style="edgeStyle=orthogonalEdgeStyle;rounded=0;orthogonalLoop=1;jettySize=auto;html=1;exitX=0.5;exitY=1;exitDx=0;exitDy=0;" edge="1" parent="1" target="gfwHRwG1T6jOgHyEGnTI-5">
                    <mxGeometry relative="1" as="geometry">
                        <Array as="points">
                            <mxPoint x="780" y="880"/>
                            <mxPoint x="780" y="880"/>
                        </Array>
                        <mxPoint x="794.7" y="830" as="sourcePoint"/>
                        <mxPoint x="794.7" y="893" as="targetPoint"/>
                    </mxGeometry>
                </mxCell>
                <mxCell id="ARYJxS30__drbKi8CYRL-2" value="&amp;lt;&amp;lt;data store&amp;gt;&amp;gt;&lt;br&gt;&lt;br&gt;step:action" style="html=1;align=center;verticalAlign=middle;dashed=0;whiteSpace=wrap;fillColor=#fff2cc;strokeColor=#d6b656;" vertex="1" parent="1">
                    <mxGeometry x="727.5" y="1360" width="135" height="60" as="geometry"/>
                </mxCell>
                <mxCell id="ARYJxS30__drbKi8CYRL-3" value="" style="html=1;points=[];perimeter=orthogonalPerimeter;fillColor=strokeColor;rotation=90;" vertex="1" parent="1">
                    <mxGeometry x="946.5" y="1144" width="5" height="298" as="geometry"/>
                </mxCell>
                <mxCell id="ARYJxS30__drbKi8CYRL-4" value="&amp;lt;&amp;lt;data store&amp;gt;&amp;gt;&lt;br&gt;&lt;br&gt;RecipeControl:listBool" style="html=1;align=center;verticalAlign=middle;dashed=0;whiteSpace=wrap;fillColor=#fff2cc;strokeColor=#d6b656;" vertex="1" parent="1">
                    <mxGeometry x="951.5" y="1360" width="135" height="60" as="geometry"/>
                </mxCell>
                <mxCell id="ARYJxS30__drbKi8CYRL-7" value="A" style="ellipse;fillColor=#ffe6cc;strokeColor=#d79b00;" vertex="1" parent="1">
                    <mxGeometry x="1180" y="1375" width="30" height="30" as="geometry"/>
                </mxCell>
                <mxCell id="ARYJxS30__drbKi8CYRL-11" style="edgeStyle=none;html=1;entryX=-0.098;entryY=0.479;entryDx=0;entryDy=0;entryPerimeter=0;" edge="1" parent="1" source="gfwHRwG1T6jOgHyEGnTI-1" target="ARYJxS30__drbKi8CYRL-3">
                    <mxGeometry relative="1" as="geometry"/>
                </mxCell>
                <mxCell id="ARYJxS30__drbKi8CYRL-12" value="" style="html=1;verticalAlign=bottom;labelBackgroundColor=none;endArrow=block;endFill=1;endSize=6;align=left;entryX=0.542;entryY=0.042;entryDx=0;entryDy=0;entryPerimeter=0;exitX=0.102;exitY=0.865;exitDx=0;exitDy=0;exitPerimeter=0;" edge="1" parent="1" source="ARYJxS30__drbKi8CYRL-3" target="ARYJxS30__drbKi8CYRL-2">
                    <mxGeometry x="-1" relative="1" as="geometry">
                        <mxPoint x="840" y="1300" as="sourcePoint"/>
                        <mxPoint x="760" y="1360" as="targetPoint"/>
                        <Array as="points">
                            <mxPoint x="840" y="1330"/>
                            <mxPoint x="800" y="1330"/>
                        </Array>
                    </mxGeometry>
                </mxCell>
                <mxCell id="ARYJxS30__drbKi8CYRL-14" value="" style="html=1;verticalAlign=bottom;labelBackgroundColor=none;endArrow=block;endFill=1;endSize=6;align=left;entryX=0.5;entryY=0;entryDx=0;entryDy=0;exitX=0.102;exitY=0.865;exitDx=0;exitDy=0;exitPerimeter=0;" edge="1" parent="1" target="ARYJxS30__drbKi8CYRL-4">
                    <mxGeometry x="-1" relative="1" as="geometry">
                        <mxPoint x="930" y="1290" as="sourcePoint"/>
                        <mxPoint x="891" y="1362" as="targetPoint"/>
                        <Array as="points">
                            <mxPoint x="930" y="1329"/>
                            <mxPoint x="1020" y="1330"/>
                        </Array>
                    </mxGeometry>
                </mxCell>
                <mxCell id="ARYJxS30__drbKi8CYRL-15" value="" style="html=1;verticalAlign=bottom;labelBackgroundColor=none;endArrow=block;endFill=1;endSize=6;align=left;entryX=0.5;entryY=0;entryDx=0;entryDy=0;exitX=0.702;exitY=0.167;exitDx=0;exitDy=0;exitPerimeter=0;" edge="1" parent="1" source="ARYJxS30__drbKi8CYRL-3" target="ARYJxS30__drbKi8CYRL-7">
                    <mxGeometry x="-1" relative="1" as="geometry">
                        <mxPoint x="1180" y="1290" as="sourcePoint"/>
                        <mxPoint x="1269" y="1360" as="targetPoint"/>
                        <Array as="points">
                            <mxPoint x="1048" y="1330"/>
                            <mxPoint x="1195" y="1330"/>
                        </Array>
                    </mxGeometry>
                </mxCell>
                <mxCell id="f603eaDhWcPOf2LhiGAy-9" value="Update&lt;div&gt;execution history&lt;/div&gt;" style="html=1;dashed=0;rounded=1;absoluteArcSize=1;arcSize=20;verticalAlign=middle;align=center;whiteSpace=wrap;fillColor=#f8cecc;strokeColor=#b85450;" vertex="1" parent="1">
                    <mxGeometry x="770" y="1550" width="150" height="60" as="geometry"/>
                </mxCell>
                <mxCell id="f603eaDhWcPOf2LhiGAy-11" value="&amp;lt;&amp;lt;data store&amp;gt;&amp;gt;&lt;br&gt;&lt;br&gt;RecipeControl:listBool" style="html=1;align=center;verticalAlign=middle;dashed=0;whiteSpace=wrap;fillColor=#fff2cc;strokeColor=#d6b656;" vertex="1" parent="1">
                    <mxGeometry x="777" y="1640" width="135" height="60" as="geometry"/>
                </mxCell>
                <mxCell id="ARYJxS30__drbKi8CYRL-29" style="edgeStyle=none;html=1;entryX=0.5;entryY=0;entryDx=0;entryDy=0;" edge="1" parent="1" source="f603eaDhWcPOf2LhiGAy-12" target="f603eaDhWcPOf2LhiGAy-13">
                    <mxGeometry relative="1" as="geometry"/>
                </mxCell>
                <mxCell id="f603eaDhWcPOf2LhiGAy-12" value="Update&amp;nbsp;&lt;div&gt;current step&lt;/div&gt;" style="html=1;dashed=0;rounded=1;absoluteArcSize=1;arcSize=20;verticalAlign=middle;align=center;whiteSpace=wrap;fillColor=#f8cecc;strokeColor=#b85450;" vertex="1" parent="1">
                    <mxGeometry x="771.25" y="1750" width="146.5" height="30" as="geometry"/>
                </mxCell>
                <mxCell id="f603eaDhWcPOf2LhiGAy-13" value="&amp;lt;&amp;lt;data store&amp;gt;&amp;gt;&lt;div&gt;&lt;font color=&quot;#000000&quot;&gt;&lt;br&gt;&lt;/font&gt;step:action&lt;/div&gt;" style="html=1;align=center;verticalAlign=middle;dashed=0;whiteSpace=wrap;fillColor=#fff2cc;strokeColor=#d6b656;" vertex="1" parent="1">
                    <mxGeometry x="776" y="1830" width="135" height="60" as="geometry"/>
                </mxCell>
                <mxCell id="f603eaDhWcPOf2LhiGAy-14" value="" style="rhombus;" vertex="1" parent="1">
                    <mxGeometry x="829.5" y="1930" width="30" height="30" as="geometry"/>
                </mxCell>
                <mxCell id="f603eaDhWcPOf2LhiGAy-15" value="" style="html=1;verticalAlign=bottom;labelBackgroundColor=none;endArrow=block;endFill=1;endSize=6;align=left;exitX=0.5;exitY=1;exitDx=0;exitDy=0;entryX=0.5;entryY=0;entryDx=0;entryDy=0;" edge="1" parent="1" source="f603eaDhWcPOf2LhiGAy-9" target="f603eaDhWcPOf2LhiGAy-11">
                    <mxGeometry x="-1" relative="1" as="geometry">
                        <mxPoint x="854" y="1542" as="sourcePoint"/>
                        <mxPoint x="853.5" y="1580" as="targetPoint"/>
                    </mxGeometry>
                </mxCell>
                <mxCell id="f603eaDhWcPOf2LhiGAy-16" value="" style="html=1;verticalAlign=bottom;labelBackgroundColor=none;endArrow=block;endFill=1;endSize=6;align=left;exitX=0.5;exitY=1;exitDx=0;exitDy=0;entryX=0.5;entryY=0;entryDx=0;entryDy=0;" edge="1" parent="1" source="f603eaDhWcPOf2LhiGAy-11" target="f603eaDhWcPOf2LhiGAy-12">
                    <mxGeometry x="-1" relative="1" as="geometry">
                        <mxPoint x="853.5" y="1620" as="sourcePoint"/>
                        <mxPoint x="853.5" y="1640" as="targetPoint"/>
                    </mxGeometry>
                </mxCell>
                <mxCell id="f603eaDhWcPOf2LhiGAy-18" value="" style="html=1;verticalAlign=bottom;labelBackgroundColor=none;endArrow=block;endFill=1;endSize=6;align=left;exitX=0.5;exitY=1;exitDx=0;exitDy=0;entryX=0.5;entryY=0;entryDx=0;entryDy=0;" edge="1" parent="1" source="f603eaDhWcPOf2LhiGAy-13" target="f603eaDhWcPOf2LhiGAy-14">
                    <mxGeometry x="-1" relative="1" as="geometry">
                        <mxPoint x="853.5" y="1790" as="sourcePoint"/>
                        <mxPoint x="853.5" y="1810" as="targetPoint"/>
                    </mxGeometry>
                </mxCell>
                <mxCell id="f603eaDhWcPOf2LhiGAy-19" value="" style="ellipse;html=1;shape=endState;fillColor=strokeColor;" vertex="1" parent="1">
                    <mxGeometry x="704" y="2025" width="30" height="30" as="geometry"/>
                </mxCell>
                <mxCell id="f603eaDhWcPOf2LhiGAy-20" value="" style="shape=sumEllipse;perimeter=ellipsePerimeter;html=1;backgroundOutline=1;" vertex="1" parent="1">
                    <mxGeometry x="1127" y="2025" width="30" height="30" as="geometry"/>
                </mxCell>
                <mxCell id="f603eaDhWcPOf2LhiGAy-21" value="" style="html=1;verticalAlign=bottom;labelBackgroundColor=none;endArrow=block;endFill=1;endSize=6;align=left;exitX=0;exitY=1;exitDx=0;exitDy=0;entryX=1;entryY=0;entryDx=0;entryDy=0;" edge="1" parent="1" source="f603eaDhWcPOf2LhiGAy-14" target="f603eaDhWcPOf2LhiGAy-19">
                    <mxGeometry x="-1" relative="1" as="geometry">
                        <mxPoint x="853.5" y="1870" as="sourcePoint"/>
                        <mxPoint x="853.5" y="1900" as="targetPoint"/>
                    </mxGeometry>
                </mxCell>
                <mxCell id="f603eaDhWcPOf2LhiGAy-22" value="[true]" style="edgeLabel;html=1;align=center;verticalAlign=middle;resizable=0;points=[];" vertex="1" connectable="0" parent="f603eaDhWcPOf2LhiGAy-21">
                    <mxGeometry x="-0.1541" y="-2" relative="1" as="geometry">
                        <mxPoint as="offset"/>
                    </mxGeometry>
                </mxCell>
                <mxCell id="f603eaDhWcPOf2LhiGAy-23" value="" style="html=1;verticalAlign=bottom;labelBackgroundColor=none;endArrow=block;endFill=1;endSize=6;align=left;exitX=1;exitY=1;exitDx=0;exitDy=0;entryX=0;entryY=0;entryDx=35;entryDy=0;entryPerimeter=0;" edge="1" parent="1" source="f603eaDhWcPOf2LhiGAy-14" target="f603eaDhWcPOf2LhiGAy-29">
                    <mxGeometry x="-1" relative="1" as="geometry">
                        <mxPoint x="846.5" y="1923" as="sourcePoint"/>
                        <mxPoint x="871" y="1945" as="targetPoint"/>
                    </mxGeometry>
                </mxCell>
                <mxCell id="f603eaDhWcPOf2LhiGAy-24" value="[false]" style="edgeLabel;html=1;align=center;verticalAlign=middle;resizable=0;points=[];" vertex="1" connectable="0" parent="f603eaDhWcPOf2LhiGAy-23">
                    <mxGeometry x="-0.3681" y="-1" relative="1" as="geometry">
                        <mxPoint x="9" as="offset"/>
                    </mxGeometry>
                </mxCell>
                <mxCell id="f603eaDhWcPOf2LhiGAy-26" value="is_the_end(step)" style="shape=note2;boundedLbl=1;whiteSpace=wrap;html=1;size=25;verticalAlign=top;align=left;spacingLeft=5;fillColor=#d5e8d4;strokeColor=#82b366;" vertex="1" parent="1">
                    <mxGeometry x="487" y="1860" width="142.5" height="70" as="geometry"/>
                </mxCell>
                <mxCell id="f603eaDhWcPOf2LhiGAy-27" value="&amp;lt;&amp;lt;decisionInput&amp;gt;&amp;gt;" style="resizeWidth=1;part=1;strokeColor=none;fillColor=none;align=left;spacingLeft=5;whiteSpace=wrap;html=1;" vertex="1" parent="f603eaDhWcPOf2LhiGAy-26">
                    <mxGeometry width="142.5" height="25" relative="1" as="geometry"/>
                </mxCell>
                <mxCell id="f603eaDhWcPOf2LhiGAy-28" value="" style="html=1;verticalAlign=bottom;labelBackgroundColor=none;endArrow=block;endFill=1;endSize=6;align=left;exitX=0;exitY=0;exitDx=142.5;exitDy=47.5;entryX=0;entryY=0.5;entryDx=0;entryDy=0;exitPerimeter=0;" edge="1" parent="1" target="f603eaDhWcPOf2LhiGAy-14">
                    <mxGeometry x="-1" relative="1" as="geometry">
                        <mxPoint x="629.5" y="1905" as="sourcePoint"/>
                        <mxPoint x="819.4999999999504" y="1942.5" as="targetPoint"/>
                    </mxGeometry>
                </mxCell>
                <mxCell id="f603eaDhWcPOf2LhiGAy-29" value="Send current step" style="html=1;shape=mxgraph.infographic.ribbonSimple;notch1=0;notch2=20;align=center;verticalAlign=middle;fontSize=14;fontStyle=0;fillColor=#d5e8d4;whiteSpace=wrap;strokeColor=#82b366;" vertex="1" parent="1">
                    <mxGeometry x="887" y="2020" width="160" height="40" as="geometry"/>
                </mxCell>
                <mxCell id="f603eaDhWcPOf2LhiGAy-30" value="&lt;span style=&quot;color: rgb(0, 0, 0);&quot;&gt;Receive success of current step&lt;/span&gt;" style="html=1;shape=mxgraph.infographic.ribbonSimple;notch1=20;notch2=0;align=center;verticalAlign=middle;fontSize=14;fontStyle=0;fillColor=#d5e8d4;flipH=0;spacingRight=0;spacingLeft=14;whiteSpace=wrap;strokeColor=#82b366;" vertex="1" parent="1">
                    <mxGeometry x="490" y="1370" width="170" height="40" as="geometry"/>
                </mxCell>
                <mxCell id="f603eaDhWcPOf2LhiGAy-31" value="" style="html=1;verticalAlign=bottom;labelBackgroundColor=none;endArrow=block;endFill=1;endSize=6;align=left;exitX=1;exitY=0.5;exitDx=0;exitDy=0;entryX=0;entryY=0.5;entryDx=0;entryDy=0;exitPerimeter=0;" edge="1" parent="1" source="f603eaDhWcPOf2LhiGAy-29" target="f603eaDhWcPOf2LhiGAy-20">
                    <mxGeometry x="-1" relative="1" as="geometry">
                        <mxPoint x="861" y="1923" as="sourcePoint"/>
                        <mxPoint x="889" y="1965" as="targetPoint"/>
                    </mxGeometry>
                </mxCell>
                <mxCell id="ARYJxS30__drbKi8CYRL-28" style="edgeStyle=none;html=1;entryX=0.5;entryY=0;entryDx=0;entryDy=0;" edge="1" parent="1" source="ARYJxS30__drbKi8CYRL-16" target="f603eaDhWcPOf2LhiGAy-9">
                    <mxGeometry relative="1" as="geometry"/>
                </mxCell>
                <mxCell id="ARYJxS30__drbKi8CYRL-16" value="" style="html=1;points=[];perimeter=orthogonalPerimeter;fillColor=strokeColor;rotation=90;" vertex="1" parent="1">
                    <mxGeometry x="847.5" y="1067.5" width="5" height="835" as="geometry"/>
                </mxCell>
                <mxCell id="ARYJxS30__drbKi8CYRL-20" style="edgeStyle=none;html=1;entryX=-0.218;entryY=0.566;entryDx=0;entryDy=0;entryPerimeter=0;" edge="1" parent="1" source="ARYJxS30__drbKi8CYRL-2" target="ARYJxS30__drbKi8CYRL-16">
                    <mxGeometry relative="1" as="geometry"/>
                </mxCell>
                <mxCell id="ARYJxS30__drbKi8CYRL-21" style="edgeStyle=none;html=1;exitX=0.5;exitY=1;exitDx=0;exitDy=0;entryX=-0.5;entryY=0.298;entryDx=0;entryDy=0;entryPerimeter=0;" edge="1" parent="1" source="ARYJxS30__drbKi8CYRL-4" target="ARYJxS30__drbKi8CYRL-16">
                    <mxGeometry relative="1" as="geometry"/>
                </mxCell>
                <mxCell id="ARYJxS30__drbKi8CYRL-23" style="edgeStyle=none;html=1;entryX=0.022;entryY=0.829;entryDx=0;entryDy=0;entryPerimeter=0;" edge="1" parent="1" source="f603eaDhWcPOf2LhiGAy-30" target="ARYJxS30__drbKi8CYRL-16">
                    <mxGeometry relative="1" as="geometry"/>
                </mxCell>
                <mxCell id="ARYJxS30__drbKi8CYRL-24" style="edgeStyle=none;html=1;entryX=-0.5;entryY=0.087;entryDx=0;entryDy=0;entryPerimeter=0;" edge="1" parent="1" source="ARYJxS30__drbKi8CYRL-7" target="ARYJxS30__drbKi8CYRL-16">
                    <mxGeometry relative="1" as="geometry"/>
                </mxCell>
            </root>
        </mxGraphModel>
    </diagram>
</mxfile>